<?xml version="1.0" encoding="utf-8"?>
<!-- Generator: Adobe Illustrator 16.0.0, SVG Export Plug-In . SVG Version: 6.00 Build 0)  -->
<!DOCTYPE svg PUBLIC "-//W3C//DTD SVG 1.1//EN" "http://www.w3.org/Graphics/SVG/1.1/DTD/svg11.dtd">
<svg version="1.1" id="レイヤー_1" xmlns="http://www.w3.org/2000/svg" xmlns:xlink="http://www.w3.org/1999/xlink" x="0px"
	 y="0px" width="500px" height="100px" viewBox="0 0 500 100" enable-background="new 0 0 500 100" xml:space="preserve">
<g>
	<path d="M38.264,34.112h5.159L30.916,47.797l15.582,15.149h-5.634L26.126,48.705v14.241h-4.128V34.112h4.128v13.189L38.264,34.112z
		"/>
	<path d="M58.883,33.947h2.901l12.928,28.999h-4.225l-3.843-8.545H54.343l-3.603,8.545h-4.242L58.883,33.947z M64.948,50.728
		l-4.652-10.444l-4.314,10.444H64.948z"/>
	<path d="M100.781,34.112h3.921v28.834h-3.55L81.875,40.74v22.207h-3.88V34.112h3.344l19.443,22.396V34.112z"/>
	<path d="M120.08,33.947h2.901l12.928,28.999h-4.225l-3.843-8.545H115.54l-3.603,8.545h-4.242L120.08,33.947z M126.145,50.728
		l-4.652-10.444l-4.314,10.444H126.145z"/>
	<path d="M155.374,34.112h5.159l-12.507,13.685l15.582,15.149h-5.634l-14.737-14.241v14.241h-4.128V34.112h4.128v13.189
		L155.374,34.112z"/>
	<path d="M180.935,33.7c4.455,0,8.164,1.411,11.127,4.231c2.963,2.821,4.445,6.357,4.445,10.609c0,4.252-1.496,7.771-4.486,10.557
		c-2.991,2.787-6.762,4.18-11.313,4.18c-4.346,0-7.965-1.393-10.86-4.18c-2.895-2.786-4.342-6.277-4.342-10.475
		c0-4.306,1.458-7.87,4.373-10.691C172.794,35.11,176.479,33.7,180.935,33.7z M181.1,37.621c-3.299,0-6.011,1.032-8.135,3.096
		c-2.124,2.064-3.186,4.699-3.186,7.905c0,3.11,1.065,5.697,3.196,7.761c2.13,2.064,4.798,3.096,8,3.096
		c3.217,0,5.901-1.053,8.053-3.157c2.151-2.105,3.227-4.727,3.227-7.864c0-3.055-1.076-5.624-3.227-7.709
		C186.877,38.664,184.234,37.621,181.1,37.621z"/>
	<path d="M233.66,34.112h4.128v28.834h-4.128V50.397h-16.202v12.549h-4.128V34.112h4.128v12.467h16.202V34.112z"/>
	<path d="M258.293,33.7c4.455,0,8.164,1.411,11.128,4.231c2.963,2.821,4.444,6.357,4.444,10.609c0,4.252-1.495,7.771-4.486,10.557
		c-2.99,2.787-6.762,4.18-11.312,4.18c-4.346,0-7.966-1.393-10.86-4.18c-2.895-2.786-4.341-6.277-4.341-10.475
		c0-4.306,1.458-7.87,4.373-10.691C250.152,35.11,253.838,33.7,258.293,33.7z M258.458,37.621c-3.3,0-6.011,1.032-8.135,3.096
		s-3.187,4.699-3.187,7.905c0,3.11,1.065,5.697,3.196,7.761c2.131,2.064,4.798,3.096,8.001,3.096c3.217,0,5.901-1.053,8.053-3.157
		c2.151-2.105,3.228-4.727,3.228-7.864c0-3.055-1.076-5.624-3.228-7.709C264.235,38.664,261.592,37.621,258.458,37.621z"/>
	<path d="M301.854,34.112h3.921v28.834h-3.55L282.947,40.74v22.207h-3.88V34.112h3.344l19.442,22.396V34.112z"/>
	<path d="M311.987,62.905V34.112h9.722c3.921,0,7.024,0.588,9.309,1.765c2.283,1.176,4.1,2.907,5.448,5.191s2.023,4.775,2.023,7.471
		c0,1.927-0.372,3.77-1.115,5.532s-1.803,3.31-3.179,4.644c-1.403,1.376-3.033,2.415-4.892,3.117
		c-1.087,0.427-2.084,0.712-2.992,0.856s-2.642,0.217-5.201,0.217H311.987z M321.275,37.787h-5.16v21.445h5.284
		c2.063,0,3.666-0.142,4.809-0.424c1.143-0.281,2.095-0.64,2.858-1.073c0.764-0.433,1.462-0.966,2.096-1.6
		c2.036-2.063,3.055-4.671,3.055-7.822c0-3.096-1.046-5.621-3.138-7.575c-0.771-0.729-1.654-1.328-2.652-1.795
		s-1.943-0.777-2.838-0.929S323.257,37.787,321.275,37.787z"/>
	<path d="M352.855,33.947h2.901l12.929,28.999h-4.226l-3.843-8.545h-12.302l-3.603,8.545h-4.242L352.855,33.947z M358.92,50.728
		l-4.651-10.444l-4.314,10.444H358.92z"/>
	<path d="M377.072,58.344c0.702,0,1.301,0.241,1.796,0.723s0.743,1.073,0.743,1.774c0,0.688-0.245,1.267-0.733,1.734
		c-0.488,0.467-1.09,0.701-1.806,0.701c-0.701,0-1.293-0.234-1.774-0.701c-0.482-0.468-0.723-1.046-0.723-1.734
		c0-0.701,0.24-1.293,0.723-1.774C375.779,58.585,376.371,58.344,377.072,58.344z"/>
	<path d="M381.737,46.971l7.059-6.935v3.921h6.007v3.385h-6.007v9.293c0,2.171,0.901,3.256,2.704,3.256
		c1.349,0,2.772-0.447,4.272-1.342v3.509c-1.445,0.812-3.021,1.218-4.727,1.218c-1.721,0-3.151-0.502-4.293-1.507
		c-0.358-0.302-0.654-0.643-0.888-1.021c-0.234-0.378-0.431-0.873-0.588-1.486c-0.158-0.611-0.237-1.778-0.237-3.498v-8.421h-3.303
		V46.971z"/>
	<path d="M407.558,43.917c2.89,0,5.29,0.932,7.203,2.796c1.912,1.865,2.869,4.208,2.869,7.028c0,2.738-0.971,5.012-2.91,6.821
		c-1.94,1.81-4.383,2.714-7.327,2.714c-2.849,0-5.229-0.918-7.142-2.755c-1.913-1.837-2.869-4.132-2.869-6.884
		c0-2.779,0.967-5.094,2.9-6.945C402.215,44.842,404.641,43.917,407.558,43.917z M407.352,47.301c-1.803,0-3.282,0.592-4.438,1.775
		c-1.155,1.184-1.733,2.69-1.733,4.521c0,1.816,0.592,3.299,1.775,4.447c1.183,1.149,2.703,1.724,4.562,1.724
		c1.844,0,3.354-0.581,4.53-1.744c1.176-1.162,1.765-2.652,1.765-4.468c0-1.803-0.612-3.296-1.837-4.479
		C410.75,47.893,409.209,47.301,407.352,47.301z"/>
	<path d="M421.799,34.112h3.757v28.834h-3.757V34.112z M434.16,43.958h4.461l-8.103,9.288l9.753,9.701h-5.039l-9.512-9.69
		L434.16,43.958z"/>
	<path d="M453.704,43.958h4.215l-13.454,28.668h-4.192l6.445-13.758l-7.333-14.911h4.28l5.128,10.726L453.704,43.958z"/>
	<path d="M469.643,43.917c2.89,0,5.29,0.932,7.203,2.796c1.912,1.865,2.869,4.208,2.869,7.028c0,2.738-0.971,5.012-2.91,6.821
		c-1.94,1.81-4.383,2.714-7.327,2.714c-2.849,0-5.229-0.918-7.142-2.755c-1.913-1.837-2.869-4.132-2.869-6.884
		c0-2.779,0.967-5.094,2.9-6.945C464.3,44.842,466.726,43.917,469.643,43.917z M469.437,47.301c-1.803,0-3.282,0.592-4.438,1.775
		c-1.155,1.184-1.733,2.69-1.733,4.521c0,1.816,0.592,3.299,1.775,4.447c1.183,1.149,2.703,1.724,4.562,1.724
		c1.844,0,3.354-0.581,4.53-1.744c1.176-1.162,1.765-2.652,1.765-4.468c0-1.803-0.612-3.296-1.837-4.479
		C472.835,47.893,471.294,47.301,469.437,47.301z"/>
</g>
</svg>
